<?xml version="1.0" encoding="utf-8"?>
<!-- Generator: Adobe Illustrator 17.0.0, SVG Export Plug-In . SVG Version: 6.00 Build 0)  -->
<!DOCTYPE svg PUBLIC "-//W3C//DTD SVG 1.1//EN" "http://www.w3.org/Graphics/SVG/1.1/DTD/svg11.dtd">
<svg version="1.1" id="Layer_1" xmlns="http://www.w3.org/2000/svg" xmlns:xlink="http://www.w3.org/1999/xlink" x="0px" y="0px"
	 width="20px" height="13.333px" viewBox="-1 2.334 20 13.333" enable-background="new -1 2.334 20 13.333" xml:space="preserve">
<path fill="#ED1C24" d="M9,12.333c-0.643,0-1.274-0.177-1.822-0.513L-1,6.84v7.715c0,0.614,0.497,1.111,1.111,1.111h17.778
	c0.613,0,1.111-0.497,1.111-1.111V6.84l-8.171,4.978C10.279,12.155,9.645,12.333,9,12.333z"/>
<path fill="#ED1C24" d="M18.407,4.6l-8.74,5.322c-0.409,0.252-0.925,0.252-1.333,0L-0.406,4.6C-0.88,4.318-1.104,3.752-0.951,3.222
	c0.166-0.529,0.657-0.889,1.211-0.889h17.481c0.555-0.001,1.046,0.359,1.211,0.889c0.153,0.529-0.071,1.096-0.545,1.378
	C18.408,4.6,18.407,4.6,18.407,4.6z"/>
</svg>
